<svg xmlns="http://www.w3.org/2000/svg" viewBox="0 0 24 20">
  <path fill="#2fdf84" d="M23.25 12.75v2.5a1 1 0 01-1 1H1.75a1 1 0 01-1-1v-2.5z"/>
  <path fill="#efefef" d="M23.25 1.75v11H.75v-11a1 1 0 011-1h20.5a1 1 0 011 1zM15.23 19.25H8.75a5.783 5.783 0 001.48-3h3.52a5.842 5.842 0 001.48 3z"/>
  <path fill="#00b871" d="M3 15.25v-2.5H.75v2.5a1 1 0 001 1H4a1 1 0 01-1-1z"/>
  <path fill="#d5dbe1" d="M4 .75H1.75a1 1 0 00-1 1v11H3v-11a1 1 0 011-1zM10.23 16.25a5.783 5.783 0 01-1.48 3H11a5.783 5.783 0 001.48-3z"/>
  <path fill="#020f60" d="M22.25 17H1.75A1.752 1.752 0 010 15.25V1.75A1.752 1.752 0 011.75 0h20.5A1.752 1.752 0 0124 1.75v13.5A1.752 1.752 0 0122.25 17zM1.75 1.5a.25.25 0 00-.25.25v13.5a.25.25 0 00.25.25h20.5a.25.25 0 00.25-.25V1.75a.25.25 0 00-.25-.25z"/>
  <path fill="#020f60" d="M23.25 13.5H.75a.75.75 0 010-1.5h22.5a.75.75 0 010 1.5zM15.25 20h-6.5a.75.75 0 01-.53-1.28 5.088 5.088 0 001.267-2.567.75.75 0 011.487.195 6.725 6.725 0 01-.744 2.152h3.523a6.888 6.888 0 01-.746-2.147.75.75 0 011.486-.208 5.212 5.212 0 001.184 2.488A.75.75 0 0115.25 20zM15.25 9.5a.751.751 0 01-.569-1.239L15.762 7 14.68 5.738a.75.75 0 111.139-.977l1.5 1.75a.75.75 0 010 .977l-1.5 1.75a.747.747 0 01-.569.262zM8.75 9.5a.751.751 0 01-.57-.262l-1.5-1.75a.75.75 0 010-.977l1.5-1.75a.75.75 0 011.139.977L8.238 7 9.32 8.262A.749.749 0 018.75 9.5zM11.25 11a.75.75 0 01-.732-.918l1.5-6.5a.75.75 0 011.462.336l-1.5 6.5a.748.748 0 01-.73.582z"/>
</svg>