<svg xmlns="http://www.w3.org/2000/svg" viewBox="0 0 90.936 99.828">
  <defs>
    <linearGradient id="a" x1=".5" x2=".5" y2="1" gradientUnits="objectBoundingBox">
      <stop offset="0" stop-color="#2fdf84"/>
      <stop offset=".5" stop-color="#00b871"/>
      <stop offset="1" stop-color="#2fdf84"/>
    </linearGradient>
  </defs>
  <path fill="#1e293b" d="M33.266 0C14.981 0 .104 15.705.104 35.009c0 16.268 10.564 29.978 24.829 33.89l8-9.534c-12.261-.2-22.181-11.042-22.181-24.356 0-13.434 10.1-24.363 22.516-24.363h48.739L90.938 0z"/>
  <path fill="url(#a)" d="M140.113 352.788l-8.961-.43h-7.792c-6.163 0-11.178-4.208-11.178-9.38s5.018-9.378 11.178-9.378h17.84a29.8 29.8 0 0022.827-10.646H123.36c-12.034 0-21.824 8.983-21.824 20.025 0 10.7 9.19 19.464 20.707 20l16.753.43c6.164 0 11.178 4.207 11.178 9.379s-5.014 9.38-11.178 9.38h-17.941a29.793 29.793 0 00-22.827 10.646H139c12.034 0 21.824-8.984 21.824-20.026-.004-10.699-9.194-19.465-20.711-20z" transform="translate(-85.658 -307.969)"/>
  <path fill="#1e293b" d="M57.774 99.831c18.285 0 33.162-15.706 33.162-35.01 0-16.267-10.564-29.977-24.828-33.89l-8 9.535c12.261.2 22.181 11.042 22.181 24.355 0 13.434-10.1 24.364-22.516 24.364H8.931L0 99.831z"/>
</svg>
