<svg xmlns="http://www.w3.org/2000/svg" viewBox="0 0 122.527 122.523">
  <path fill="#21759b" d="M8.708 61.26a52.563 52.563 0 0 0 29.619 47.3L13.258 39.872a52.354 52.354 0 0 0-4.55 21.388Zm88.032-2.652c0-6.495-2.333-10.993-4.334-14.494-2.664-4.329-5.161-7.995-5.161-12.324 0-4.831 3.664-9.328 8.825-9.328.233 0 .454.029.681.042a52.543 52.543 0 0 0-79.4 9.892c1.233.037 2.4.063 3.382.063 5.5 0 14.006-.667 14.006-.667a2.171 2.171 0 0 1 .337 4.329s-2.847.335-6.015.5L48.2 93.547l11.5-34.493-8.187-22.434c-2.83-.166-5.511-.5-5.511-.5-2.832-.166-2.5-4.5.332-4.329 0 0 8.679.667 13.843.667 5.5 0 14.006-.667 14.006-.667a2.171 2.171 0 0 1 .337 4.329s-2.853.335-6.015.5L87.5 93.114 92.739 75.6c2.272-7.269 4-12.49 4-16.989Z"/>
  <path fill="#21759b" d="m62.184 65.857-15.768 45.819a52.579 52.579 0 0 0 32.3-.838 4.614 4.614 0 0 1-.374-.724Zm45.192-29.811a40.323 40.323 0 0 1 .354 5.4 49.575 49.575 0 0 1-4 18.824l-16.049 46.417a52.563 52.563 0 0 0 19.695-70.641Z"/>
  <path fill="#21759b" d="M61.262 0a61.261 61.261 0 1 0 61.265 61.26A61.331 61.331 0 0 0 61.262 0Zm0 119.715a58.453 58.453 0 1 1 58.45-58.455 58.521 58.521 0 0 1-58.45 58.455Z"/>
</svg>