<svg xmlns="http://www.w3.org/2000/svg" fill="none" viewBox="0 0 24 24">
  <rect width="22" height="18" x="1" y="5" fill="#fff" rx="2"/>
  <rect width="22" height="6" x="1" y="1" fill="#2FDF84" rx="2"/>
  <rect width="21" height="21" x="1.5" y="1.5" stroke="#020841" rx="1.5"/>
  <mask id="a" fill="#fff">
    <path fill-rule="evenodd" d="M9.386 11.183a.5.5 0 0 1-.069.703L6.743 14l2.574 2.114a.5.5 0 1 1-.634.772L5.714 14.45a.58.58 0 0 1 0-.898l2.969-2.437a.5.5 0 0 1 .703.069Z" clip-rule="evenodd"/>
  </mask>
  <path fill="#020841" d="m9.317 11.886.635.773-.635-.773Zm.07-.703-.773.634.772-.634ZM6.742 14l-.634-.773-.941.773.94.773.635-.773Zm2.574 2.114-.634.772.634-.772Zm.07.703.772.635-.773-.635Zm-.704.07.634-.773-.634.772Zm-2.969-2.438-.634.773.634-.773Zm0-.898.635.773-.635-.773Zm2.969-2.437.634.772-.634-.772Zm1.269 1.545a1.5 1.5 0 0 0 .207-2.11l-1.545 1.268a.5.5 0 0 1 .069-.703l1.269 1.545Zm-2.574 2.114 2.574-2.114-1.27-1.545-2.573 2.113 1.269 1.546Zm2.574.568-2.574-2.114-1.27 1.546 2.575 2.113 1.269-1.545Zm.207 2.11a1.5 1.5 0 0 0-.207-2.11l-1.27 1.545a.5.5 0 0 1-.068-.703l1.545 1.269Zm-2.11.208a1.5 1.5 0 0 0 2.11-.207l-1.545-1.27a.5.5 0 0 1 .703-.068l-1.269 1.545Zm-2.97-2.437 2.97 2.437 1.268-1.545-2.968-2.438-1.27 1.546ZM4.5 14c0 .51.243.945.58 1.222l1.269-1.546A.42.42 0 0 1 6.5 14h-2Zm.58-1.222A1.58 1.58 0 0 0 4.5 14h2a.42.42 0 0 1-.151.324l-1.27-1.546Zm2.968-2.437L5.08 12.778l1.269 1.546 2.968-2.438-1.269-1.545Zm2.111.207a1.5 1.5 0 0 0-2.11-.207l1.268 1.545a.5.5 0 0 1-.703-.069l1.545-1.269Z" mask="url(#a)"/>
  <mask id="b" fill="#fff">
    <path fill-rule="evenodd" d="M14.614 11.183a.5.5 0 0 0 .069.703L17.257 14l-2.574 2.114a.5.5 0 1 0 .634.772l2.969-2.437a.58.58 0 0 0 0-.898l-2.969-2.437a.5.5 0 0 0-.703.069Z" clip-rule="evenodd"/>
  </mask>
  <path fill="#020841" d="m14.683 11.886-.635.773.635-.773Zm-.07-.703.773.634-.772-.634ZM17.258 14l.634-.773.942.773-.942.773-.634-.773Zm-2.574 2.114.634.772-.634-.772Zm-.07.703-.772.635.773-.635Zm.704.07-.634-.773.634.772Zm2.969-2.438.634.773-.634-.773Zm0-.898-.635.773.635-.773Zm-2.969-2.437-.634.772.634-.772Zm-1.269 1.545a1.5 1.5 0 0 1-.207-2.11l1.545 1.268a.5.5 0 0 0-.069-.703l-1.269 1.545Zm2.574 2.114-2.574-2.114 1.27-1.545 2.573 2.113-1.269 1.546Zm-2.574.568 2.574-2.114 1.27 1.546-2.575 2.113-1.269-1.545Zm-.207 2.11a1.5 1.5 0 0 1 .207-2.11l1.27 1.545a.5.5 0 0 0 .068-.703l-1.545 1.269Zm2.11.208a1.5 1.5 0 0 1-2.11-.207l1.545-1.27a.5.5 0 0 0-.703-.068l1.269 1.545Zm2.97-2.437-2.97 2.437-1.268-1.545 2.968-2.438 1.27 1.546ZM19.5 14c0 .51-.243.945-.58 1.222l-1.269-1.546A.42.42 0 0 0 17.5 14h2Zm-.58-1.222c.337.277.58.712.58 1.222h-2a.42.42 0 0 0 .151.324l1.27-1.546Zm-2.968-2.437 2.968 2.437-1.269 1.546-2.968-2.438 1.269-1.545Zm-2.111.207a1.5 1.5 0 0 1 2.11-.207l-1.268 1.545a.5.5 0 0 0 .703-.069l-1.545-1.269Z" mask="url(#b)"/>
  <rect width="1" height="8" x="12.552" y="10.007" fill="#020841" rx=".5" transform="rotate(15 12.552 10.007)"/>
  <path fill="#020841" d="M1 6h22v1H1z"/>
</svg>