<svg xmlns="http://www.w3.org/2000/svg" fill="none" viewBox="0 0 24 24">
  <mask id="a" fill="#fff">
    <rect width="3" height="3" x="1" y="1" rx=".5"/>
  </mask>
  <rect width="3" height="3" x="1" y="1" fill="#2FDF84" stroke="#020841" stroke-width="2" mask="url(#a)" rx=".5"/>
  <rect width="2" height="2" x="2" y="11.5" fill="#2FDF84" stroke="#020841" rx="1"/>
  <mask id="b" fill="#fff">
    <rect width="3" height="3" x="20" y="1" rx=".5"/>
  </mask>
  <rect width="3" height="3" x="20" y="1" fill="#2FDF84" stroke="#020841" stroke-width="2" mask="url(#b)" rx=".5"/>
  <rect width="2" height="2" x="20" y="11.5" fill="#2FDF84" stroke="#020841" rx="1"/>
  <path stroke="#020841" d="M4 2.5h16m-19 20h22"/>
  <path stroke="#020841" stroke-linecap="square" d="M21 11.5a9 9 0 1 0-18 0"/>
  <path stroke="#020841" d="M8.07 10.978 12 3.118l3.93 7.86-3.93 6.55-3.93-6.55ZM12 2.5V11"/>
  <path fill="#2FDF84" d="M14.275 15h-4.55a.5.5 0 0 0-.497.445l-.666 6a.5.5 0 0 0 .497.555h5.882a.5.5 0 0 0 .497-.555l-.666-6a.5.5 0 0 0-.497-.445Z"/>
  <path stroke="#020841" d="m8.5 22.5.778-6.677c0-.454.348-.823.778-.823h3.888c.43 0 .778.369.778.823 0 0 .474 4.265.778 6.677"/>
</svg>