<svg xmlns="http://www.w3.org/2000/svg" viewBox="0 0 350 398.931">
  <path fill="#4b4b4d" d="M0 0h350l-31.239 357.856L175.99 398.93 29.321 357.856"/>
  <path fill="#4b4b4d" d="M176.113 34.641v329.648l117.9-33.961 25.861-295.687"/>
  <path fill="#4b4b4d" d="M228.818 205.311h-52.7v67.488l46.827-8.784M62.602 76.272l5.815 43.116 105.594-.062-103.615 44.972 5.877 41.013h99.841V76.272m-50.972 185.764l-3.9-33.218h-42.99l5.815 68.416 91.923 25.424h.124v-49.859"/>
  <path fill="#4b4b4d" d="M275.707 160.649h-94.15l102.253-41.817V76.273h-107.7v129.1h52.7l-5.877 58.643-46.828 8.784v49.861l87.9-27.342"/>
  <path fill="#007dc2" fill-rule="evenodd" d="M0 0h350l-31.239 357.856L175.99 398.93 29.321 357.856"/>
  <path fill="#008ed2" fill-rule="evenodd" d="M176.113 34.641v329.648l117.9-33.961 25.861-295.687"/>
  <path fill="#008cc2" d="M228.817 205.373h-52.704v67.43l46.83-8.787"/>
  <path fill="#ebebec" d="M62.602 76.272l5.815 43.116 105.594-.062-103.615 44.972 5.877 41.074h99.841v-129.1m-50.972 185.764l-3.9-33.218h-42.99l5.815 68.416 91.923 25.424h.124v-49.859"/>
  <path fill="#fff" d="M275.707 160.648h-94.15l102.253-41.817V76.272H176.113v129.1h52.7l-5.87 58.643-46.83 8.784v49.859l87.9-27.342"/>
</svg>
