<svg xmlns="http://www.w3.org/2000/svg" viewBox="0 0 240 234"><path fill="#470137" d="M42.5 0h155A42.464 42.464 0 01240 42.5v149a42.464 42.464 0 01-42.5 42.5h-155A42.464 42.464 0 010 191.5v-149A42.464 42.464 0 0142.5 0z"/><path fill="#ff61f6" d="M126.2 61.5l-30 49.5 32 52.5a1.721 1.721 0 01.2 1.2c-.1.4-.5.1-1.1.2h-22.9c-1.6 0-2.7-.1-3.4-1.1-2.1-4.2-4.3-8.3-6.4-12.5-2.1-4.1-4.4-8.3-6.8-12.6s-4.8-8.6-7.2-13h-.2c-2.1 4.3-4.4 8.6-6.7 12.9s-4.6 8.6-6.8 12.8c-2.3 4.2-4.6 8.5-6.9 12.6-.4 1-1.2 1.1-2.3 1.1h-22c-.4 0-.7.2-.7-.3a1.389 1.389 0 01.2-1.1l31.1-51L36 61.4c-.3-.4-.4-.8-.2-1a1.159 1.159 0 011-.4h22.7a5.9 5.9 0 011.4.2 2.836 2.836 0 011 .9c1.9 4.3 4.1 8.6 6.4 12.9 2.4 4.3 4.7 8.5 7.2 12.7 2.4 4.2 4.6 8.4 6.7 12.7h.2c2.1-4.4 4.3-8.7 6.5-12.9s4.5-8.4 6.8-12.6 4.5-8.5 6.7-12.6a1.7 1.7 0 01.6-1 1.907 1.907 0 011.3-.2h21.1a.921.921 0 011.1.7c.1.1-.1.5-.3.7zM172.4 167a49.715 49.715 0 01-21.5-4.5 34.863 34.863 0 01-15.1-13.6c-3.7-6.1-5.5-13.7-5.5-22.8a41.071 41.071 0 015.5-21.1 41.527 41.527 0 0115.9-15.5c7-3.9 15.4-5.8 25.3-5.8a17.856 17.856 0 012.1.1c.9.1 1.9.1 3.1.2V52.4c0-.7.3-1.1 1-1.1h20.3a.9.9 0 011 .7v95.4c0 1.8.1 3.8.2 6 .2 2.1.3 4.1.4 5.8a1.624 1.624 0 01-1 1.6 76.372 76.372 0 01-16.3 4.8 88.209 88.209 0 01-15.4 1.4zm9.8-20v-44a25.58 25.58 0 00-2.7-.5c-1.1-.1-2.2-.2-3.3-.2a24.652 24.652 0 00-11.3 2.6 22.418 22.418 0 00-8.5 7.4c-2.2 3.2-3.3 7.5-3.3 12.7a27.867 27.867 0 001.7 10.3 19.544 19.544 0 004.5 7.1 17.276 17.276 0 006.8 4 26.176 26.176 0 008.3 1.3c1.5 0 2.9-.1 4.2-.2a8.746 8.746 0 003.6-.5z"/></svg>