<svg xmlns="http://www.w3.org/2000/svg" viewBox="0 0 350 397.167">
  <path fill="#e34e26" d="M31.866 357.448L0 .003h350l-31.906 357.472-143.179 39.692z"/>
  <path fill="#ef662a" d="M175 29.217v337.587l115.778-32.093 27.279-305.494z"/>
  <path fill="#fff" d="M65.199 73.062l11.818 132.575h151.951l-5.1 56.864-48.924 13.228-48.832-13.209-3.265-36.511H78.838l6.293 70.383 89.8 24.941 89.915-24.941 12.053-134.588H117.113l-4.011-44.9h167.772l3.926-43.845z"/>
  <path fill="#ebebeb" d="M175 73.062H65.2l11.818 132.575h97.983v-43.834h-57.888l-4.011-44.9h61.9zm0 202.647l-.056.019-48.832-13.209-3.265-36.511H78.838l6.293 70.383 89.8 24.941.067-.019z"/>
</svg>
