<svg xmlns="http://www.w3.org/2000/svg" fill="none" viewBox="0 0 100 100"><path fill="#FFFFFF" d="M0 0h100v100H0z"/><path fill="#000" d="M87 70.885c-2.692.685-4.357.03-5.85-2.217L70.525 53.947l-1.536-2.039-12.406 16.809c-1.418 2.022-2.905 2.902-5.55 2.186l15.887-21.36L52.13 30.25c2.544-.496 4.301-.243 5.862 2.038l11.02 14.905 11.1-14.824c1.421-2.022 2.95-2.79 5.503-2.045L79.88 37.94l-7.77 10.133c-.925 1.158-.798 1.95.053 3.069L87 70.885ZM13.019 49.187l1.3-6.402c3.537-12.67 18.037-17.934 28.036-10.105 5.844 4.604 7.296 11.117 7.007 18.413h-32.94c-.494 13.133 8.943 21.059 20.975 17.015 4.22-1.42 6.706-4.73 7.95-8.871.632-2.075 1.677-2.4 3.624-1.807-.994 5.18-3.238 9.506-7.978 12.213-7.083 4.054-17.194 2.743-22.512-2.89-3.169-3.268-4.477-7.41-5.065-11.838-.092-.732-.277-1.43-.416-2.131.012-1.198.018-2.396.018-3.595v-.002Zm3.464-.88h29.766c-.194-9.496-6.098-16.241-14.166-16.299-8.857-.07-15.216 6.515-15.6 16.299Z"/></svg>