<svg xmlns="http://www.w3.org/2000/svg" fill="none" viewBox="0 0 95 91"><path fill="#0868AC" d="M5.979 21.3c-8.335 11.98-7.298 27.567-.93 40.296.15.305.31.605.466.905.1.19.194.386.297.574.06.112.125.222.186.33.109.202.22.395.332.593.198.35.4.696.608 1.042.115.19.228.381.347.572.23.37.465.737.705 1.103.1.156.198.313.3.464.333.496.672.989 1.022 1.475.009.012.018.027.03.039.054.078.115.154.172.232a48.402 48.402 0 0 0 1.281 1.684 68.058 68.058 0 0 0 1.19 1.45c.391.462.79.92 1.198 1.37l.024.024c.018.02.032.032.047.052a60.25 60.25 0 0 0 1.609 1.677c.32.322.644.64.973.954.133.127.264.257.397.379a50.823 50.823 0 0 0 1.354 1.23c.077.069.157.132.232.198.398.344.803.686 1.211 1.023.166.134.334.266.502.4.333.267.67.53 1.01.79l.539.41c.375.275.752.546 1.133.812.139.1.273.198.412.293.04.027.075.054.114.08.361.25.73.49 1.1.728.158.105.316.215.476.318a61.23 61.23 0 0 0 1.722 1.054l.476.269c.427.247.857.488 1.293.725.236.127.477.247.715.369.308.16.613.324.926.48.07.035.143.07.213.103.126.061.253.12.378.183.485.232.973.46 1.467.679.105.046.206.093.31.14a52.52 52.52 0 0 0 2.126.873c.532.205 1.072.408 1.614.598.068.025.134.047.203.071.594.208 1.195.4 1.799.588.144.042.29.088.434.13.616.185 1.224.407 1.858.525 40.31 7.35 52.02-24.224 52.02-24.224-9.835 12.812-27.29 16.19-43.83 12.429-.626-.142-1.234-.337-1.845-.518l-.46-.139a54.923 54.923 0 0 1-1.778-.579l-.244-.087a55.967 55.967 0 0 1-1.567-.582c-.147-.058-.293-.114-.44-.173a50.432 50.432 0 0 1-1.692-.703c-.114-.049-.224-.1-.338-.149-.48-.217-.955-.437-1.427-.664l-.413-.198c-.37-.18-.737-.374-1.103-.562-.245-.129-.494-.25-.737-.386a42.673 42.673 0 0 1-1.324-.742c-.147-.083-.297-.163-.447-.249a63.921 63.921 0 0 1-1.723-1.055c-.157-.1-.31-.207-.465-.31a50.095 50.095 0 0 1-1.226-.815c-.134-.09-.262-.188-.395-.278-.39-.276-.776-.555-1.159-.838a57.796 57.796 0 0 1-1.56-1.206l-.466-.373c-.44-.362-.874-.725-1.302-1.099l-.143-.12a63.07 63.07 0 0 1-1.37-1.245 57.41 57.41 0 0 1-.386-.37 43.462 43.462 0 0 1-.983-.965c-.13-.13-.26-.257-.386-.386-.41-.42-.813-.845-1.207-1.277l-.06-.063a49.093 49.093 0 0 1-1.546-1.775 53.58 53.58 0 0 1-.881-1.089 27.092 27.092 0 0 1-.323-.403c-.347-.45-.686-.899-1.018-1.355-9.182-12.525-12.48-29.8-5.142-43.987"/><path fill="#0868AC" d="M31.852 11.208c-6.028 8.674-5.7 20.286-.998 29.46a38.381 38.381 0 0 0 2.666 4.45c.903 1.294 1.904 2.835 3.102 3.875.435.478.89.945 1.353 1.404.117.12.237.234.356.351.45.437.909.867 1.382 1.284.02.015.037.035.056.05.005.004.01.006.014.012.523.459 1.064.9 1.614 1.335.122.093.242.19.366.286.55.422 1.112.837 1.688 1.233l.049.036c.254.176.513.34.77.508.123.08.24.166.365.242.412.264.828.52 1.251.767.06.036.119.068.177.102.365.21.735.417 1.106.618.13.073.262.136.393.205.257.134.513.27.774.4.04.02.08.037.117.054.531.261 1.067.513 1.614.752.117.051.238.098.357.146.437.186.879.367 1.323.538a64.456 64.456 0 0 0 1.781.629c.184.059.365.12.55.176.579.18 1.151.408 1.756.508 31.123 5.156 38.308-18.806 38.308-18.806-6.477 9.329-19.02 13.779-32.405 10.305a38.57 38.57 0 0 1-1.763-.51c-.178-.054-.353-.113-.53-.171a35.826 35.826 0 0 1-1.233-.425 40.492 40.492 0 0 1-1.884-.742c-.119-.052-.24-.098-.357-.152-.55-.239-1.09-.49-1.623-.754-.275-.134-.545-.276-.815-.415l-.47-.242c-.346-.188-.69-.383-1.03-.58-.08-.047-.165-.091-.246-.14-.422-.246-.837-.5-1.248-.762-.127-.08-.25-.168-.376-.251a46.093 46.093 0 0 1-.808-.535 43.187 43.187 0 0 1-1.682-1.23c-.127-.1-.254-.198-.379-.298-5.859-4.626-10.503-10.947-12.71-18.115-2.315-7.434-1.816-15.78 2.193-22.551"/><path fill="#0868AC" d="M53.613 3.667c-3.553 5.23-3.903 11.724-1.437 17.5 2.6 6.13 7.929 10.94 14.147 13.22.257.095.513.18.773.268.113.034.226.073.34.108.367.114.73.249 1.109.32 17.185 3.32 21.846-8.819 23.087-10.606-4.083 5.88-10.945 7.29-19.364 5.247a21.91 21.91 0 0 1-2.037-.629 24.899 24.899 0 0 1-2.42-1.005 25.021 25.021 0 0 1-4.24-2.588C56.037 19.786 51.357 8.881 56.273 0"/></svg>