<svg xmlns="http://www.w3.org/2000/svg" fill="none" viewBox="0 0 19 21"><path fill="url(#a)" d="M9.509.133a.981.981 0 0 0-.976 0L.478 4.811A.963.963 0 0 0 0 5.66v9.375c0 .346.191.674.478.847l8.055 4.678c.306.173.67.173.976 0l8.054-4.678a.963.963 0 0 0 .479-.847V5.659c0-.347-.192-.674-.479-.848L9.51.133Z"/><path fill="url(#b)" d="M17.583 4.811 9.49.133a1.32 1.32 0 0 0-.25-.096L.172 15.65c.077.096.173.173.268.23l8.093 4.679c.23.135.498.173.746.096l8.514-15.67a.598.598 0 0 0-.21-.174Z"/><path fill="url(#c)" d="M17.583 15.88c.23-.134.402-.365.478-.616L9.203.018c-.23-.039-.478-.02-.689.115L.48 4.792l8.666 15.901c.115-.019.25-.057.364-.115l8.074-4.697Z"/><defs><linearGradient id="a" x1="12.301" x2="4.946" y1="3.617" y2="18.53" gradientUnits="userSpaceOnUse"><stop stop-color="#3F873F"/><stop offset=".33" stop-color="#3F8B3D"/><stop offset=".637" stop-color="#3E9638"/><stop offset=".934" stop-color="#3DA92E"/><stop offset="1" stop-color="#3DAE2B"/></linearGradient><linearGradient id="b" x1="7.797" x2="28.321" y1="11.441" y2="-3.63" gradientUnits="userSpaceOnUse"><stop offset=".138" stop-color="#3F873F"/><stop offset=".402" stop-color="#52A044"/><stop offset=".713" stop-color="#64B749"/><stop offset=".908" stop-color="#6ABF4B"/></linearGradient><linearGradient id="c" x1="-.295" x2="18.343" y1="10.343" y2="10.343" gradientUnits="userSpaceOnUse"><stop offset=".092" stop-color="#6ABF4B"/><stop offset=".287" stop-color="#64B749"/><stop offset=".598" stop-color="#52A044"/><stop offset=".862" stop-color="#3F873F"/></linearGradient></defs></svg>